<svg xmlns="http://www.w3.org/2000/svg" viewBox="0 0 800 266"><path d="M22.1 163c.2-.2.5-.8 1-.9 6.1-2.2 12.2-4.3 18.3-6.4 5.9-2.1 11.9-4.2 17.8-6.3 1.6-.6 3.2-1.3 4.9-1.7.7-.2 1.6-.2 2.3 0 4.3 1.4 8.6 3 12.9 4.5 4.5 1.6 9.1 3.1 13.6 4.6 3.5 1.2 7.1 2.5 10.6 3.8 1.3.5 2.7.9 4 1.3.8.2 1 .7.9 1.4-.6 4.9-1.2 9.7-1.8 14.6-.6 4.7-1.1 9.4-1.7 14.1-.5 4.3-1 8.6-1.6 13-.5 4.2-1 8.4-1.5 12.7-.1.8-.4 1.3-1.1 1.7-4.2 2.2-8.4 4.5-12.5 6.8-4.4 2.4-8.7 4.7-13.1 7.1-3.4 1.8-6.7 3.6-10 5.5-.6.3-1.1.3-1.7 0-7.3-4.2-14.6-8.3-21.9-12.4-4-2.2-8-4.5-11.9-6.8-.5-.3-.8-1-.9-1.5-.4-2.5-.7-4.9-.9-7.4-.3-2.8-.6-5.5-1-8.3l-2.1-17.7-1.8-15c-.3-2.2-.5-4.3-.8-6.7zm5.5-22.2H6.2L54 28.3h22.4l48.8 112.5h-22.4L90 110.1H52.5L59.7 92h22.7L64.6 49.8l-37 91zm111.3 0V28.3h20.8l59.4 82v-82h20.1v112.5h-20.8L159 57.1v83.7h-20.1zm213.6-5.2c-9.1 4-20.4 6-34.1 6-39.7 0-59.6-19.5-59.6-58.6 0-37 20.2-55.5 60.6-55.5 12.3 0 23.3 1.8 33 5.5v18.9c-9.7-4.2-20.2-6.3-31.5-6.3-27 0-40.5 12.5-40.5 37.4 0 27 12.7 40.5 38.2 40.5 3.8 0 8.1-.6 12.9-1.9V88.9h20.8v46.7zm19.7-39V28.3H393v68.3c0 17.9 9.2 26.9 27.5 26.9 18.4 0 27.5-9 27.5-26.9V28.3h20.8v68.3c0 30-16.1 45-48.4 45-32.1 0-48.2-15-48.2-45zm141.2-68.3v94.4h44.7v18.1h-65.5V28.3h20.8zm75.9 112.5h-21.4l47.8-112.5h22.4l48.8 112.5h-22.4l-12.8-30.7h-37.4l7.2-18.1H644l-17.7-42.2-37 91zm111.3-.1V28.3h51.1c23 0 34.5 10 34.5 30.1 0 13.6-8.9 24.8-26.8 33.7l35.6 48.6h-26.3l-34.2-49v-9.5c19.9-3.4 29.9-11.1 29.9-23.2 0-8.3-4.7-12.4-14-12.4h-28.6v94h-21.2z" fill="#cb2128"/><path d="M28.5 167.3c.2-.2.4-.7.8-.8 5.2-1.9 10.4-3.7 15.6-5.5 5.1-1.8 10.1-3.6 15.2-5.4 1.4-.5 2.7-1.1 4.2-1.5.6-.2 1.4-.2 2 0 3.7 1.2 7.3 2.5 11 3.8 3.9 1.3 7.7 2.6 11.6 3.9 3 1 6 2.1 9 3.2 1.1.4 2.3.8 3.4 1.1.7.2.9.6.8 1.2-.5 4.1-1 8.3-1.5 12.4-.5 4-.9 8-1.4 12-.4 3.7-.9 7.4-1.3 11-.4 3.6-.9 7.2-1.2 10.8-.1.7-.4 1.1-1 1.4-3.6 1.9-7.1 3.9-10.7 5.8-3.7 2-7.5 4-11.2 6-2.9 1.5-5.7 3.1-8.5 4.7-.5.3-.9.3-1.4 0-6.2-3.5-12.4-7.1-18.6-10.6-3.4-1.9-6.8-3.8-10.2-5.8-.4-.2-.7-.8-.8-1.3-.3-2.1-.6-4.2-.8-6.3-.3-2.3-.5-4.7-.8-7-.6-5-1.2-10-1.8-15.1-.5-4.3-1-8.5-1.6-12.8-.4-1.4-.5-3.2-.8-5.2z" fill="#fff"/><path d="M138.6 235.3v-77.6h33.1c14.8 0 22.1 6 22.1 18.1 0 8.8-4.8 15.1-14.4 18.9 10.3 1.9 15.4 7.8 15.4 17.6 0 15.3-8.1 22.9-24.2 22.9h-32zm31.3-8.1c9.3 0 13.9-4.7 13.9-14.1 0-9.1-6.2-13.7-18.6-13.7h-4.3v-6.6c14.8-2 22.2-7.3 22.2-16.1 0-7.2-4.1-10.8-12.4-10.8h-22.1v61.3h21.3zm38.1-30.6c0-26.3 13-39.4 38.9-39.4 25.6 0 38.3 13.1 38.3 39.4 0 26.1-12.8 39.2-38.3 39.2-25.9.1-38.9-13-38.9-39.2zm38.9 31.1c18.5 0 27.8-10.5 27.8-31.4 0-20.6-9.3-31-27.8-31-18.9 0-28.4 10.3-28.4 31 .1 20.9 9.5 31.4 28.4 31.4zm51.4-31.1c0-26.3 13-39.4 38.9-39.4 25.6 0 38.3 13.1 38.3 39.4 0 26.1-12.8 39.2-38.3 39.2-25.9.1-38.9-13-38.9-39.2zm39 31.1c18.5 0 27.8-10.5 27.8-31.4 0-20.6-9.3-31-27.8-31-18.9 0-28.4 10.3-28.4 31 0 20.9 9.4 31.4 28.4 31.4zm106.4-70v8.1h-24.4v69.4h-10v-69.4h-24.4v-8.1h58.8zm97.6 74.9c-6.7 2.2-13.9 3.3-21.7 3.3-27.1 0-40.7-13.5-40.7-40.4 0-25.5 13.6-38.2 40.7-38.2 7.8 0 15 1.1 21.7 3.3v8.7c-6.7-2.5-13.6-3.8-20.6-3.8-21.2 0-31.7 10-31.7 30.1 0 21.5 10.6 32.3 31.7 32.3 7.1 0 13.9-1.3 20.6-3.8v8.5zm19.1 2.7H550l32.9-77.6H594l33.1 77.6H616l-10-24.4h-25.7l2.8-8.1h19.5l-14.5-35.1-27.7 67.6zm77.3 0v-77.6h12.7l28.5 64.7 27.9-64.7H719v77.6h-8.9v-63.6l-27.6 63.6h-7.9l-28-63.6v63.6h-8.9zm99.8 0v-77.6H769c15.8 0 23.8 6.9 23.8 20.8 0 15.1-10.8 24.3-32.5 27.6l-2.1-8.5c15.9-2.3 23.9-8.6 23.9-18.7 0-8.6-4.7-12.9-14-12.9h-20.5v69.3h-10.1z" fill="#3a3b3a"/></svg>